<svg xmlns="http://www.w3.org/2000/svg" fill="currentColor" viewBox="0 0 512 123" width="1em" height="1em"><title>AMD</title><path d="M120.41 114H91.87l-8.69-20.96H35.84L27.92 114H0L42.65 8.17h30.57L120.41 114zm-61.89-80.62L42.84 74.61h32.57L58.52 33.38zM223.39 8.17h22.97V114h-26.38V48.04l-28.55 33.2h-4.03l-28.55-33.35V113.86H132.47V8.17h22.98l33.97 39.36 33.97-39.36zM313.2 8.17c38.63 0 58.63 24.04 58.63 53.06 0 30.42-19.23 52.77-61.45 52.77h-43.9V8.17h46.72zm-20.34 86.45h17.23c26.53 0 34.44-18 34.44-33.53 0-18.33-9.78-33.53-34.74-33.53h-16.93v67.06zM424.13 39.94v47.93h47.93l-34.23 34.27H389.9V74.17l34.23-34.23zM512 0v121.11l-33.27-33.27V33.27H424.16L390.93 0H512z"/></svg>
